1.8Hz3min_grf.mot
version=1
nRows=27
nColumns 19
inDegrees=yes
endheader
time	1_ground_force_vx	1_ground_force_vy	1_ground_force_vz	1_ground_force_px	1_ground_force_py	1_ground_force_pz	1_ground_torque_x	1_ground_torque_y	1_ground_torque_z	2_ground_force_vx	2_ground_force_vy	2_ground_force_vz	2_ground_force_px	2_ground_force_py	2_ground_force_pz	2_ground_torque_x	2_ground_torque_y	2_ground_torque_z
            2.502500	           54.426057	          151.965873	          -39.516776	           -0.157302	            0.006132	           -0.380820	            0.290869	            0.812150	           -0.211189	           20.222793	          179.614745	           53.708107	           -0.186291	            0.005933	           -0.731734	           -0.720818	           -6.402160	           -1.914363
            2.503000	           55.801772	          156.470618	          -38.996446	           -0.158420	            0.006125	           -0.379234	            0.269992	            0.757069	           -0.188681	           22.047881	          180.174297	           53.568517	           -0.187192	            0.005929	           -0.731663	           -0.801508	           -6.549889	           -1.947380
            2.503500	           57.269377	          158.632320	          -38.578112	           -0.159344	            0.006122	           -0.378693	            0.238554	            0.660780	           -0.160696	           23.957369	          183.312249	           53.438086	           -0.187990	            0.005930	           -0.732760	           -0.870879	           -6.663618	           -1.942538
            2.504000	           59.101465	          161.338625	          -39.029628	           -0.160507	            0.006120	           -0.378253	            0.201379	            0.549736	           -0.132987	           25.778428	          184.977010	           53.208582	           -0.188514	            0.005929	           -0.733018	           -0.938953	           -6.737596	           -1.938067
            2.504500	           60.887156	          163.325039	          -39.759257	           -0.160059	            0.006124	           -0.379199	            0.247343	            0.663479	           -0.161515	           27.507806	          186.088844	           53.024074	           -0.189596	            0.005927	           -0.733463	           -1.004370	           -6.794509	           -1.936024
            2.505000	           61.755390	          166.753990	          -40.617991	           -0.161035	            0.006119	           -0.378059	            0.237196	            0.640486	           -0.156010	           29.133861	          189.959696	           53.647241	           -0.190182	            0.005928	           -0.734303	           -1.039579	           -6.778302	           -1.914286
            2.505500	           61.707996	          168.378535	          -41.115339	           -0.161286	            0.006118	           -0.377677	            0.292463	            0.798025	           -0.194865	           30.676045	          191.069179	           53.932094	           -0.191114	            0.005926	           -0.734841	           -1.088991	           -6.782904	           -1.914575
            2.506000	           61.661969	          170.000721	          -41.062409	           -0.160489	            0.006118	           -0.377847	            0.307199	            0.846942	           -0.204573	           31.932474	          193.466663	           54.221666	           -0.191653	            0.005923	           -0.734633	           -1.112971	           -6.743066	           -1.889836
            2.506500	           61.204658	          173.242465	          -40.359523	           -0.160636	            0.006117	           -0.377598	            0.261095	            0.739040	           -0.172171	           33.095706	          195.681006	           54.135197	           -0.192112	            0.005925	           -0.735525	           -1.143820	           -6.762929	           -1.870966
            2.507000	           61.159815	          176.484486	          -39.703513	           -0.161692	            0.006115	           -0.377073	            0.229138	            0.661208	           -0.148751	           34.493203	          197.896028	           54.095556	           -0.192873	            0.005925	           -0.736190	           -1.189715	           -6.825690	           -1.865826
            2.507500	           61.159240	          179.008402	          -39.738544	           -0.162676	            0.006118	           -0.377894	            0.208176	            0.609316	           -0.135264	           35.331085	          199.373097	           53.865813	           -0.192917	            0.005922	           -0.735457	           -1.219180	           -6.879827	           -1.858764
            2.508000	           60.925244	          185.864548	          -41.130140	           -0.162635	            0.006109	           -0.375767	            0.217556	            0.663698	           -0.146870	           36.258052	          202.139214	           53.734486	           -0.193706	            0.005920	           -0.735722	           -1.245456	           -6.943434	           -1.845767
            2.508500	           59.640269	          188.389592	          -41.482980	           -0.162612	            0.006111	           -0.376087	            0.281618	            0.889566	           -0.195881	           37.232138	          204.903295	           54.213204	           -0.194457	            0.005919	           -0.736201	           -1.261000	           -6.939787	           -1.836125
            2.509000	           57.804996	          192.536725	          -41.781638	           -0.163090	            0.006108	           -0.375615	            0.241559	            0.804584	           -0.174600	           37.831130	          207.668396	           54.035089	           -0.195099	            0.005918	           -0.736639	           -1.251964	           -6.872471	           -1.788209
            2.509500	           55.330741	          195.597617	          -41.028659	           -0.162954	            0.006109	           -0.375651	            0.172459	            0.609653	           -0.127881	           38.101161	          210.798084	           54.562348	           -0.195219	            0.005916	           -0.736118	           -1.233095	           -6.822211	           -1.765841
            2.510000	           53.313024	          199.022275	          -41.008967	           -0.163377	            0.006109	           -0.375745	            0.116653	            0.435476	           -0.089731	           38.042551	          214.110926	           55.043476	           -0.195719	            0.005916	           -0.736532	           -1.205173	           -6.782948	           -1.743755
            2.510500	           51.754123	          202.806767	          -40.805442	           -0.163733	            0.006108	           -0.375624	            0.108745	            0.426134	           -0.085740	           38.171012	          217.427092	           54.773675	           -0.196246	            0.005914	           -0.736750	           -1.193541	           -6.798566	           -1.712677
            2.511000	           50.559778	          206.775331	          -41.473321	           -0.164088	            0.006106	           -0.375040	            0.137519	            0.562413	           -0.112804	           37.788423	          219.634013	           55.204072	           -0.196145	            0.005912	           -0.736054	           -1.164506	           -6.768344	           -1.701194
            2.511500	           49.227460	          210.023788	          -42.373227	           -0.163711	            0.006107	           -0.375240	            0.177789	            0.758520	           -0.153035	           37.587005	          223.500976	           55.077166	           -0.196651	            0.005912	           -0.736543	           -1.140670	           -6.782686	           -1.671452
            2.512000	           44.957880	          218.323246	          -44.207178	           -0.164172	            0.006103	           -0.374414	            0.174698	            0.848362	           -0.171781	           37.342374	          226.444495	           55.650916	           -0.196628	            0.005909	           -0.735474	           -1.119522	           -6.788795	           -1.668412
            2.512500	           42.113819	          223.191443	          -44.546101	           -0.164694	            0.006100	           -0.373676	            0.112601	            0.596754	           -0.119104	           36.670685	          230.860347	           56.042389	           -0.197691	            0.005905	           -0.735679	           -1.071091	           -6.743054	           -1.636907
            2.513000	           38.948918	          227.699047	          -44.885774	           -0.164764	            0.006101	           -0.373988	            0.067904	            0.396971	           -0.078254	           36.230048	          236.196775	           56.718616	           -0.197815	            0.005908	           -0.736662	           -1.024308	           -6.677834	           -1.603568
            2.513500	           36.883664	          231.667246	          -45.505631	           -0.164963	            0.006100	           -0.373796	            0.043999	            0.276358	           -0.054284	           35.139621	          239.872504	           57.670778	           -0.197531	            0.005909	           -0.736434	           -0.969478	           -6.617918	           -1.591097
            2.514000	           34.079447	          240.690606	          -47.936262	           -0.164913	            0.006096	           -0.372810	            0.087476	            0.617808	           -0.123043	           34.047618	          243.918522	           58.061116	           -0.198180	            0.005908	           -0.736779	           -0.922684	           -6.610148	           -1.573446
            2.514500	           32.333198	          244.481943	          -49.337244	           -0.165019	            0.006097	           -0.372990	            0.109263	            0.826174	           -0.166725	           32.768983	          247.778917	           58.685518	           -0.197861	            0.005908	           -0.736562	           -0.869996	           -6.578374	           -1.558063
            2.515000	           27.786914	          253.685232	          -51.762778	           -0.165051	            0.006094	           -0.372357	            0.062276	            0.568557	           -0.116010	           30.534463	          256.973042	           60.221007	           -0.198289	            0.005905	           -0.736256	           -0.780082	           -6.565043	           -1.538502
            2.515500	           25.215158	          259.279097	          -53.153974	           -0.165509	            0.006092	           -0.371833	            0.035699	            0.367086	           -0.075255	           29.624992	          262.489211	           61.648940	           -0.198646	            0.005903	           -0.735860	           -0.739152	           -6.549179	           -1.538158
